<svg width="30" height="30" viewBox="0 0 30 30" fill="none" xmlns="http://www.w3.org/2000/svg">
<path d="M6.74999 15C7.72447 14.9997 8.6798 15.2707 9.50903 15.7825C10.3383 16.2943 11.0087 17.0269 11.4452 17.8981C11.8818 18.7693 12.0672 19.7449 11.9808 20.7155C11.8944 21.6861 11.5396 22.6136 10.956 23.394L14.781 27.219C14.8506 27.2887 14.9058 27.3715 14.9435 27.4626C14.9811 27.5536 15.0005 27.6512 15.0004 27.7498C15.0003 27.8483 14.9809 27.9459 14.9431 28.0369C14.9053 28.1279 14.85 28.2106 14.7802 28.2803C14.7105 28.3499 14.6277 28.4051 14.5367 28.4427C14.4456 28.4804 14.348 28.4997 14.2495 28.4997C14.1509 28.4996 14.0533 28.4801 13.9623 28.4423C13.8713 28.4046 13.7886 28.3492 13.719 28.2795L9.89399 24.4545C9.22803 24.9525 8.45331 25.2851 7.63362 25.4251C6.81393 25.5651 5.97271 25.5083 5.17925 25.2595C4.38579 25.0107 3.66277 24.577 3.06974 23.9941C2.47671 23.4112 2.03063 22.6957 1.76823 21.9066C1.50583 21.1176 1.43462 20.2775 1.56047 19.4555C1.68632 18.6335 2.00561 17.8532 2.49207 17.1788C2.97853 16.5043 3.61824 15.9551 4.35851 15.5763C5.09878 15.1975 5.91844 15 6.74999 15ZM27 21C27 22.1935 26.5259 23.3381 25.682 24.182C24.8381 25.0259 23.6935 25.5 22.5 25.5H15.1815L12.8415 23.16C13.3844 22.0214 13.5975 20.7535 13.4565 19.5H15.75C15.9489 19.5 16.1397 19.421 16.2803 19.2803C16.421 19.1397 16.5 18.9489 16.5 18.75V18H22.5C23.3514 17.9997 24.1931 17.8181 24.969 17.4674C25.7448 17.1167 26.4372 16.6049 27 15.966V21ZM6.74999 16.5C5.75543 16.5 4.8016 16.8951 4.09834 17.5983C3.39508 18.3016 2.99999 19.2554 2.99999 20.25C2.99999 21.2446 3.39508 22.1984 4.09834 22.9016C4.8016 23.6049 5.75543 24 6.74999 24C7.74455 24 8.69838 23.6049 9.40164 22.9016C10.1049 22.1984 10.5 21.2446 10.5 20.25C10.5 19.2554 10.1049 18.3016 9.40164 17.5983C8.69838 16.8951 7.74455 16.5 6.74999 16.5ZM16.875 3C18.324 3 19.5 4.176 19.5 5.625V7.5H22.5C23.6935 7.5 24.8381 7.97411 25.682 8.81802C26.5259 9.66193 27 10.8065 27 12C27 13.1935 26.5259 14.3381 25.682 15.182C24.8381 16.0259 23.6935 16.5 22.5 16.5H16.5V15.75C16.5 15.5511 16.421 15.3603 16.2803 15.2197C16.1397 15.079 15.9489 15 15.75 15H14.25C14.0511 15 13.8603 15.079 13.7197 15.2197C13.579 15.3603 13.5 15.5511 13.5 15.75V16.5H12.3615C11.7449 15.5771 10.9102 14.8206 9.93142 14.2973C8.95262 13.774 7.85989 13.5002 6.74999 13.5C5.65915 13.4997 4.58448 13.7637 3.61799 14.2695C3.21881 13.586 3.00696 12.8094 3.00382 12.0179C3.00068 11.2264 3.20635 10.448 3.6001 9.76141C3.99384 9.07479 4.56172 8.50418 5.24644 8.10713C5.93116 7.71009 6.70849 7.50067 7.49999 7.5H10.5V5.625C10.5 4.176 11.676 3 13.125 3H16.875ZM13.125 4.5C12.8266 4.5 12.5405 4.61853 12.3295 4.8295C12.1185 5.04048 12 5.32663 12 5.625V7.5H18V5.625C18 5.32663 17.8815 5.04048 17.6705 4.8295C17.4595 4.61853 17.1734 4.5 16.875 4.5H13.125Z" fill="#1329A9"/>
</svg>
