<svg width="30" height="30" viewBox="0 0 30 30" fill="none" xmlns="http://www.w3.org/2000/svg">
<path d="M7.24999 14C8.22447 13.9997 9.1798 14.2707 10.009 14.7825C10.8383 15.2943 11.5087 16.0269 11.9452 16.8981C12.3818 17.7693 12.5672 18.7449 12.4808 19.7155C12.3944 20.6861 12.0396 21.6136 11.456 22.394L15.281 26.219C15.3506 26.2887 15.4058 26.3715 15.4435 26.4626C15.4811 26.5536 15.5005 26.6512 15.5004 26.7498C15.5003 26.8483 15.4809 26.9459 15.4431 27.0369C15.4053 27.1279 15.35 27.2106 15.2802 27.2803C15.2105 27.3499 15.1277 27.4051 15.0367 27.4427C14.9456 27.4804 14.848 27.4997 14.7495 27.4997C14.6509 27.4996 14.5533 27.4801 14.4623 27.4423C14.3713 27.4046 14.2886 27.3492 14.219 27.2795L10.394 23.4545C9.72803 23.9525 8.95331 24.2851 8.13362 24.4251C7.31393 24.5651 6.47271 24.5083 5.67925 24.2595C4.88579 24.0107 4.16277 23.577 3.56974 22.9941C2.97671 22.4112 2.53063 21.6957 2.26823 20.9066C2.00583 20.1176 1.93462 19.2775 2.06047 18.4555C2.18632 17.6335 2.50561 16.8532 2.99207 16.1788C3.47853 15.5043 4.11824 14.9551 4.85851 14.5763C5.59878 14.1975 6.41844 14 7.24999 14ZM27.5 20C27.5 21.1935 27.0259 22.3381 26.182 23.182C25.3381 24.0259 24.1935 24.5 23 24.5H15.6815L13.3415 22.16C13.8844 21.0214 14.0975 19.7535 13.9565 18.5H16.25C16.4489 18.5 16.6397 18.421 16.7803 18.2803C16.921 18.1397 17 17.9489 17 17.75V17H23C23.8514 16.9997 24.6931 16.8181 25.469 16.4674C26.2448 16.1167 26.9372 15.6049 27.5 14.966V20ZM7.24999 15.5C6.25543 15.5 5.3016 15.8951 4.59834 16.5983C3.89508 17.3016 3.49999 18.2554 3.49999 19.25C3.49999 20.2446 3.89508 21.1984 4.59834 21.9016C5.3016 22.6049 6.25543 23 7.24999 23C8.24455 23 9.19838 22.6049 9.90164 21.9016C10.6049 21.1984 11 20.2446 11 19.25C11 18.2554 10.6049 17.3016 9.90164 16.5983C9.19838 15.8951 8.24455 15.5 7.24999 15.5ZM17.375 2C18.824 2 20 3.176 20 4.625V6.5H23C24.1935 6.5 25.3381 6.97411 26.182 7.81802C27.0259 8.66193 27.5 9.80653 27.5 11C27.5 12.1935 27.0259 13.3381 26.182 14.182C25.3381 15.0259 24.1935 15.5 23 15.5H17V14.75C17 14.5511 16.921 14.3603 16.7803 14.2197C16.6397 14.079 16.4489 14 16.25 14H14.75C14.5511 14 14.3603 14.079 14.2197 14.2197C14.079 14.3603 14 14.5511 14 14.75V15.5H12.8615C12.2449 14.5771 11.4102 13.8206 10.4314 13.2973C9.45262 12.774 8.35989 12.5002 7.24999 12.5C6.15915 12.4997 5.08448 12.7637 4.11799 13.2695C3.71881 12.586 3.50696 11.8094 3.50382 11.0179C3.50068 10.2264 3.70635 9.44803 4.1001 8.76141C4.49384 8.07479 5.06172 7.50418 5.74644 7.10713C6.43116 6.71009 7.20849 6.50067 7.99999 6.5H11V4.625C11 3.176 12.176 2 13.625 2H17.375ZM13.625 3.5C13.3266 3.5 13.0405 3.61853 12.8295 3.8295C12.6185 4.04048 12.5 4.32663 12.5 4.625V6.5H18.5V4.625C18.5 4.32663 18.3815 4.04048 18.1705 3.8295C17.9595 3.61853 17.6734 3.5 17.375 3.5H13.625Z" fill="white"/>
</svg>
