<svg width="24" height="26" viewBox="0 0 24 26" fill="none" xmlns="http://www.w3.org/2000/svg">
<path d="M21.875 17.5C22.3565 17.5002 22.8195 17.6857 23.168 18.018C23.5165 18.3503 23.7238 18.8039 23.7469 19.2849C23.77 19.7659 23.6073 20.2373 23.2923 20.6015C22.9773 20.9657 22.5343 21.1948 22.055 21.2412L21.875 21.25H1.875C1.39348 21.2498 0.930507 21.0643 0.582017 20.732C0.233527 20.3997 0.026235 19.9461 0.00309467 19.4651C-0.0200456 18.9841 0.14274 18.5127 0.457719 18.1485C0.772699 17.7843 1.21573 17.5552 1.695 17.5088L1.875 17.5H21.875ZM21.875 8.75C22.3723 8.75 22.8492 8.94754 23.2008 9.29917C23.5525 9.65081 23.75 10.1277 23.75 10.625C23.75 11.1223 23.5525 11.5992 23.2008 11.9508C22.8492 12.3025 22.3723 12.5 21.875 12.5H1.875C1.37772 12.5 0.900806 12.3025 0.549175 11.9508C0.197544 11.5992 0 11.1223 0 10.625C0 10.1277 0.197544 9.65081 0.549175 9.29917C0.900806 8.94754 1.37772 8.75 1.875 8.75H21.875ZM21.875 0C22.3723 0 22.8492 0.197544 23.2008 0.549175C23.5525 0.900806 23.75 1.37772 23.75 1.875C23.75 2.37228 23.5525 2.84919 23.2008 3.20083C22.8492 3.55246 22.3723 3.75 21.875 3.75H1.875C1.37772 3.75 0.900806 3.55246 0.549175 3.20083C0.197544 2.84919 0 2.37228 0 1.875C0 1.37772 0.197544 0.900806 0.549175 0.549175C0.900806 0.197544 1.37772 0 1.875 0H21.875Z" fill="white"/>
</svg>
