<svg width="25" height="25" viewBox="0 0 25 25" fill="none" xmlns="http://www.w3.org/2000/svg">
<path d="M2.08331 9.37516C2.91211 9.37516 3.70697 9.7044 4.29302 10.2905C4.87907 10.8765 5.20831 11.6714 5.20831 12.5002C5.20831 13.329 4.87907 14.1238 4.29302 14.7099C3.70697 15.2959 2.91211 15.6252 2.08331 15.6252V17.7085C2.08331 18.261 2.30281 18.7909 2.69351 19.1816C3.08421 19.5723 3.61411 19.7918 4.16665 19.7918H20.8333C21.3858 19.7918 21.9158 19.5723 22.3065 19.1816C22.6972 18.7909 22.9166 18.261 22.9166 17.7085V15.6252C22.0878 15.6252 21.293 15.2959 20.7069 14.7099C20.1209 14.1238 19.7916 13.329 19.7916 12.5002C19.7916 11.6714 20.1209 10.8765 20.7069 10.2905C21.293 9.7044 22.0878 9.37516 22.9166 9.37516V7.29183C22.9166 6.73929 22.6972 6.20939 22.3065 5.81869C21.9158 5.42799 21.3858 5.2085 20.8333 5.2085H4.16665C3.61411 5.2085 3.08421 5.42799 2.69351 5.81869C2.30281 6.20939 2.08331 6.73929 2.08331 7.29183V9.37516Z" stroke="white" stroke-width="2" stroke-linecap="round" stroke-linejoin="round"/>
<path d="M13.5417 5.2085V7.29183" stroke="white" stroke-width="2" stroke-linecap="round" stroke-linejoin="round"/>
<path d="M13.5417 17.7085V19.7918" stroke="white" stroke-width="2" stroke-linecap="round" stroke-linejoin="round"/>
<path d="M13.5417 11.4585V13.5418" stroke="white" stroke-width="2" stroke-linecap="round" stroke-linejoin="round"/>
</svg>
