<svg width="25" height="25" viewBox="0 0 25 25" fill="none" xmlns="http://www.w3.org/2000/svg">
<path d="M19.5 15.3751C19.8646 14.4897 20.0625 13.5418 20.0625 12.5001C20.0625 11.7501 19.9479 11.0314 19.75 10.3647C19.0729 10.521 18.3646 10.6043 17.625 10.6043C16.1104 10.6059 14.6176 10.2434 13.2724 9.54724C11.9273 8.8511 10.7692 7.84176 9.89581 6.6043C8.96244 8.86549 7.19968 10.6841 4.96873 11.6876C4.92706 11.9481 4.92706 12.2293 4.92706 12.5001C4.92706 13.4946 5.12294 14.4794 5.50352 15.3982C5.88409 16.317 6.44191 17.1518 7.14512 17.855C8.56532 19.2752 10.4915 20.0731 12.5 20.0731C13.5937 20.0731 14.6458 19.8335 15.5937 19.4064C16.1875 20.5418 16.4583 21.1043 16.4375 21.1043C14.7291 21.6772 13.4062 21.9585 12.5 21.9585C9.97915 21.9585 7.5729 20.9689 5.80206 19.1876C4.72399 18.1146 3.92318 16.7955 3.46873 15.3439H2.08331V10.6043H3.21873C3.56273 8.92984 4.35362 7.37973 5.50747 6.11846C6.66132 4.85719 8.13509 3.93181 9.77241 3.44051C11.4097 2.94921 13.1495 2.91032 14.8071 3.32796C16.4648 3.7456 17.9784 4.60419 19.1875 5.81264C20.4998 7.12053 21.3951 8.78793 21.7604 10.6043H22.9166V15.3439H22.8541L19.1458 18.7501L13.625 18.1251V16.3856H18.6562L19.5 15.3751ZM9.65623 12.2606C9.96873 12.2606 10.2708 12.3856 10.4896 12.6147C10.7094 12.8364 10.8328 13.1359 10.8328 13.4481C10.8328 13.7602 10.7094 14.0598 10.4896 14.2814C10.2708 14.5001 9.96873 14.6251 9.65623 14.6251C8.99998 14.6251 8.46873 14.1043 8.46873 13.4481C8.46873 12.7918 8.99998 12.2606 9.65623 12.2606ZM15.3333 12.2606C15.9896 12.2606 16.5104 12.7918 16.5104 13.4481C16.5104 14.1043 15.9896 14.6251 15.3333 14.6251C14.6771 14.6251 14.1458 14.1043 14.1458 13.4481C14.1458 13.1331 14.2709 12.8311 14.4936 12.6084C14.7163 12.3857 15.0184 12.2606 15.3333 12.2606Z" fill="white"/>
</svg>
