<svg width="30" height="30" viewBox="0 0 30 30" fill="none" xmlns="http://www.w3.org/2000/svg">
<path d="M15.0006 1.375C7.47531 1.375 1.375 7.47531 1.375 15.0006C1.375 22.5259 7.47531 28.6263 15.0006 28.6263C22.5259 28.6263 28.6263 22.5259 28.6263 15.0006C28.6263 7.47531 22.5259 1.375 15.0006 1.375ZM16.1772 22.3881V24.3072H14.3416V22.4097C11.3294 21.9972 10.0103 19.5222 10.0103 19.5222L11.8853 17.9538C11.8853 17.9538 13.0825 20.0378 15.2481 20.0378C16.4444 20.0378 17.3519 19.3975 17.3519 18.3034C17.3519 15.7459 10.4613 16.0562 10.4613 11.3116C10.4613 9.24906 12.0925 7.76312 14.3406 7.41156V5.49438H16.1763V7.41156C17.7437 7.61781 19.6 8.44281 19.6 10.2175V11.5788H17.1663V10.9188C17.1663 10.2381 16.2991 9.78438 15.3288 9.78438C14.0913 9.78438 13.1847 10.4031 13.1847 11.2694C13.1847 13.8888 20.0753 13.2494 20.0753 18.2209C20.0753 20.2647 18.5491 22.0366 16.1772 22.3881Z" fill="white"/>
</svg>
