<svg width="20" height="20" viewBox="0 0 20 20" fill="none" xmlns="http://www.w3.org/2000/svg">
<g clip-path="url(#clip0_223_1219)">
<path d="M0.5 16.8699C0.5 15.6102 1.00044 14.402 1.89124 13.5112C2.78204 12.6204 3.99022 12.12 5.25 12.12H14.75C16.0098 12.12 17.218 12.6204 18.1088 13.5112C18.9996 14.402 19.5 15.6102 19.5 16.8699C19.5 17.4998 19.2498 18.1039 18.8044 18.5493C18.359 18.9947 17.7549 19.2449 17.125 19.2449H2.875C2.24511 19.2449 1.64102 18.9947 1.19562 18.5493C0.750222 18.1039 0.5 17.4998 0.5 16.8699Z" stroke="#9CA3AF" stroke-width="0.729167" stroke-linejoin="round"/>
<path d="M9.565 7.12C11.2578 7.12 12.63 5.74999 12.63 4.06C12.63 2.37001 11.2578 1 9.565 1C7.87225 1 6.5 2.37001 6.5 4.06C6.5 5.74999 7.87225 7.12 9.565 7.12Z" stroke="#9CA3AF" stroke-width="0.729167"/>
</g>
<defs>
<clipPath id="clip0_223_1219">
<rect width="20" height="20" fill="white"/>
</clipPath>
</defs>
</svg>
