<svg width="48" height="48" viewBox="0 0 48 48" fill="none" xmlns="http://www.w3.org/2000/svg">
<path d="M31 15L35.6 19.6C35.9739 19.9665 36.4765 20.1717 37 20.1717C37.5235 20.1717 38.0261 19.9665 38.4 19.6L42.6 15.4C42.9665 15.0261 43.1717 14.5235 43.1717 14C43.1717 13.4765 42.9665 12.9739 42.6 12.6L38 8" stroke="#1329A9" stroke-width="2" stroke-linecap="round" stroke-linejoin="round"/>
<path d="M41.9998 4L22.7998 23.2" stroke="#1329A9" stroke-width="2" stroke-linecap="round" stroke-linejoin="round"/>
<path d="M15 42C21.0751 42 26 37.0751 26 31C26 24.9249 21.0751 20 15 20C8.92487 20 4 24.9249 4 31C4 37.0751 8.92487 42 15 42Z" stroke="#1329A9" stroke-width="2" stroke-linecap="round" stroke-linejoin="round"/>
</svg>
