<svg width="38" height="30" viewBox="0 0 38 30" fill="none" xmlns="http://www.w3.org/2000/svg">
<g clip-path="url(#clip0_588_3363)">
<path d="M15.9492 4.03516L12.9551 7.0293C12.0586 7.27539 11.2266 7.72656 10.5234 8.34766L8.96484 9.73633C8.36719 10.2695 7.58789 10.5625 6.78516 10.5625H5.625V18.0625C6.82031 18.0977 7.95703 18.584 8.80664 19.4336L10.8926 21.5195L11.3027 21.9297L12.8848 23.5117C13.248 23.875 13.8457 23.875 14.209 23.5117C14.3086 23.4121 14.3848 23.2949 14.4258 23.1719C14.5898 22.7207 14.9707 22.3809 15.4395 22.2754C15.9082 22.1699 16.4004 22.3105 16.7402 22.6562L17.373 23.2773C18.0527 23.957 19.1543 23.957 19.8281 23.2773C20.1445 22.9609 20.3145 22.5566 20.332 22.1406C20.3555 21.625 20.6602 21.168 21.1289 20.9453C21.5977 20.7227 22.1426 20.7695 22.5586 21.0684C23.1094 21.4609 23.877 21.4082 24.3691 20.916C24.9199 20.3652 24.9199 19.4746 24.3691 18.9297L19.9277 14.4883L17.8301 16.4219C16.2305 17.8984 13.7754 17.9219 12.1465 16.4746C10.2891 14.8223 10.248 11.9395 12.0527 10.2344L16.1602 6.35547C17.7656 4.84375 19.8867 4 22.0957 4C24.2109 4 26.2559 4.7793 27.832 6.17969L29.5957 7.75H36.5625C37.0781 7.75 37.5 8.17188 37.5 8.6875V20.875C37.5 21.9121 36.6621 22.75 35.625 22.75H33.75C33.0586 22.75 32.4492 22.375 32.127 21.8125H27.1523C26.9531 22.2051 26.6895 22.5801 26.3613 22.9082C25.3594 23.9102 23.9707 24.3027 22.6699 24.0859C22.459 24.5137 22.1719 24.9121 21.8145 25.2695C20.2148 26.8691 17.7129 27.0273 15.9316 25.7441C14.4609 26.9629 12.2695 26.8867 10.8926 25.5039L9.31641 23.9219L8.90625 23.5117L6.82031 21.4258C6.49805 21.1035 6.07617 20.916 5.625 20.8809C5.625 21.9121 4.78125 22.75 3.75 22.75H1.875C0.837891 22.75 0 21.9121 0 20.875V8.6875C0 8.17188 0.421875 7.75 0.9375 7.75H6.78516C6.90234 7.75 7.01367 7.70898 7.0957 7.63281L8.64844 6.25C10.2832 4.80273 12.3867 4 14.5723 4H15.1758C15.4336 4 15.6973 4.01172 15.9492 4.03516ZM31.875 19V10.5625H29.0625C28.7168 10.5625 28.3828 10.4336 28.1309 10.2051L25.9688 8.2832C24.9023 7.33398 23.5254 6.8125 22.0957 6.8125C20.6074 6.8125 19.1777 7.38086 18.0938 8.40039L13.9863 12.2793C13.3828 12.8535 13.3945 13.8203 14.0156 14.3711C14.5605 14.8574 15.3867 14.8457 15.9199 14.3535L20.1328 10.4629C20.7012 9.93555 21.5918 9.9707 22.1191 10.5449C22.6465 11.1191 22.6113 12.0039 22.0371 12.5312L21.9902 12.5781L26.3496 16.9375C26.9355 17.5234 27.3164 18.2441 27.4863 18.9941H31.8691L31.875 19ZM3.75 19.9375C3.75 19.6889 3.65123 19.4504 3.47541 19.2746C3.2996 19.0988 3.06114 19 2.8125 19C2.56386 19 2.3254 19.0988 2.14959 19.2746C1.97377 19.4504 1.875 19.6889 1.875 19.9375C1.875 20.1861 1.97377 20.4246 2.14959 20.6004C2.3254 20.7762 2.56386 20.875 2.8125 20.875C3.06114 20.875 3.2996 20.7762 3.47541 20.6004C3.65123 20.4246 3.75 20.1861 3.75 19.9375ZM34.6875 20.875C34.9361 20.875 35.1746 20.7762 35.3504 20.6004C35.5262 20.4246 35.625 20.1861 35.625 19.9375C35.625 19.6889 35.5262 19.4504 35.3504 19.2746C35.1746 19.0988 34.9361 19 34.6875 19C34.4389 19 34.2004 19.0988 34.0246 19.2746C33.8488 19.4504 33.75 19.6889 33.75 19.9375C33.75 20.1861 33.8488 20.4246 34.0246 20.6004C34.2004 20.7762 34.4389 20.875 34.6875 20.875Z" fill="white"/>
</g>
<defs>
<clipPath id="clip0_588_3363">
<rect width="37.5" height="30" fill="white"/>
</clipPath>
</defs>
</svg>
