<svg width="30" height="30" viewBox="0 0 30 30" fill="none" xmlns="http://www.w3.org/2000/svg">
<path d="M3.125 23.75V8.75H26.875V23.75C26.875 25.125 25.75 26.25 24.375 26.25H5.625C4.25 26.25 3.125 25.125 3.125 23.75Z" fill="#CFD8DC"/>
<path d="M26.875 6.25V10H3.125V6.25C3.125 4.875 4.25 3.75 5.625 3.75H24.375C25.75 3.75 26.875 4.875 26.875 6.25Z" fill="#374151"/>
<path d="M20.625 8.125C21.6605 8.125 22.5 7.28553 22.5 6.25C22.5 5.21447 21.6605 4.375 20.625 4.375C19.5895 4.375 18.75 5.21447 18.75 6.25C18.75 7.28553 19.5895 8.125 20.625 8.125Z" fill="#B71C1C"/>
<path d="M9.375 8.125C10.4105 8.125 11.25 7.28553 11.25 6.25C11.25 5.21447 10.4105 4.375 9.375 4.375C8.33947 4.375 7.5 5.21447 7.5 6.25C7.5 7.28553 8.33947 8.125 9.375 8.125Z" fill="#B71C1C"/>
<path d="M20.625 1.875C19.9375 1.875 19.375 2.4375 19.375 3.125V6.25C19.375 6.9375 19.9375 7.5 20.625 7.5C21.3125 7.5 21.875 6.9375 21.875 6.25V3.125C21.875 2.4375 21.3125 1.875 20.625 1.875ZM9.375 1.875C8.6875 1.875 8.125 2.4375 8.125 3.125V6.25C8.125 6.9375 8.6875 7.5 9.375 7.5C10.0625 7.5 10.625 6.9375 10.625 6.25V3.125C10.625 2.4375 10.0625 1.875 9.375 1.875Z" fill="#B0BEC5"/>
<path d="M8.125 12.5H10.625V15H8.125V12.5ZM11.875 12.5H14.375V15H11.875V12.5ZM15.625 12.5H18.125V15H15.625V12.5ZM19.375 12.5H21.875V15H19.375V12.5ZM8.125 16.25H10.625V18.75H8.125V16.25ZM11.875 16.25H14.375V18.75H11.875V16.25ZM15.625 16.25H18.125V18.75H15.625V16.25ZM19.375 16.25H21.875V18.75H19.375V16.25ZM8.125 20H10.625V22.5H8.125V20ZM11.875 20H14.375V22.5H11.875V20ZM15.625 20H18.125V22.5H15.625V20ZM19.375 20H21.875V22.5H19.375V20Z" fill="#90A4AE"/>
<path d="M6.3125 11.625C9.24651 11.625 11.625 9.24651 11.625 6.3125C11.625 3.37849 9.24651 1 6.3125 1C3.37849 1 1 3.37849 1 6.3125C1 9.24651 3.37849 11.625 6.3125 11.625Z" fill="white" stroke="#D42C2C"/>
<path d="M6.3125 3.1875V6.3125L8.0625 8.0625" fill="white"/>
<path d="M6.3125 3.1875V6.3125L8.0625 8.0625" stroke="#4B5563" stroke-width="0.625" stroke-linecap="round" stroke-linejoin="round"/>
</svg>
