<svg width="30" height="30" viewBox="0 0 30 30" fill="none" xmlns="http://www.w3.org/2000/svg">
<path d="M8.43745 12.1875C8.43727 11.1059 8.70442 10.0411 9.21515 9.08764C9.72587 8.13423 10.4643 7.32183 11.3648 6.72271C12.2653 6.12359 13.2999 5.75633 14.3766 5.6536C15.4533 5.55086 16.5387 5.71584 17.5363 6.13386C18.5338 6.55188 19.4126 7.20997 20.0944 8.04959C20.7762 8.88922 21.2399 9.88435 21.4442 10.9465C21.6486 12.0086 21.5873 13.1047 21.2657 14.1374C20.9442 15.1701 20.3724 16.1073 19.6012 16.8656C19.2393 17.2219 18.9206 17.685 18.7668 18.2456L18.1199 20.625H11.8799L11.2312 18.2456C11.0805 17.7202 10.7932 17.244 10.3987 16.8656C9.77773 16.255 9.28451 15.5269 8.9478 14.7237C8.61108 13.9206 8.43759 13.0584 8.43745 12.1875ZM12.3937 22.5H17.6062L17.2856 23.685C17.2313 23.8835 17.1132 24.0585 16.9495 24.1832C16.7858 24.3079 16.5857 24.3753 16.3799 24.375H13.6199C13.4142 24.3753 13.2141 24.3079 13.0504 24.1832C12.8867 24.0585 12.7686 23.8835 12.7143 23.685L12.3937 22.5ZM14.9999 3.75C13.3254 3.75028 11.6888 4.24883 10.2985 5.1822C8.90814 6.11556 7.827 7.44152 7.19266 8.99129C6.55832 10.5411 6.39947 12.2445 6.73633 13.8848C7.0732 15.5252 7.89055 17.0282 9.08432 18.2025C9.24241 18.3489 9.35887 18.5346 9.42182 18.7406L10.9068 24.1781C11.0693 24.7732 11.4228 25.2984 11.9131 25.6728C12.4033 26.0472 13.0031 26.25 13.6199 26.25H16.3799C16.9968 26.25 17.5965 26.0472 18.0868 25.6728C18.5771 25.2984 18.9306 24.7732 19.0931 24.1781L20.5762 18.7406C20.6397 18.5344 20.7568 18.3487 20.9156 18.2025C22.1093 17.0282 22.9267 15.5252 23.2636 13.8848C23.6004 12.2445 23.4416 10.5411 22.8072 8.99129C22.1729 7.44152 21.0918 6.11556 19.7014 5.1822C18.3111 4.24883 16.6745 3.75028 14.9999 3.75Z" fill="#1329A9"/>
</svg>
