<svg width="30" height="30" viewBox="0 0 30 30" fill="none" xmlns="http://www.w3.org/2000/svg">
<path d="M13.125 8.75C12.1304 8.75 11.1766 9.14509 10.4733 9.84835C9.77009 10.5516 9.375 11.5054 9.375 12.5C9.375 13.4946 9.77009 14.4484 10.4733 15.1517C11.1766 15.8549 12.1304 16.25 13.125 16.25C14.1196 16.25 15.0734 15.8549 15.7767 15.1517C16.4799 14.4484 16.875 13.4946 16.875 12.5C16.875 11.5054 16.4799 10.5516 15.7767 9.84835C15.0734 9.14509 14.1196 8.75 13.125 8.75ZM11.25 12.5C11.25 12.0027 11.4475 11.5258 11.7992 11.1742C12.1508 10.8225 12.6277 10.625 13.125 10.625C13.6223 10.625 14.0992 10.8225 14.4508 11.1742C14.8025 11.5258 15 12.0027 15 12.5C15 12.9973 14.8025 13.4742 14.4508 13.8258C14.0992 14.1775 13.6223 14.375 13.125 14.375C12.6277 14.375 12.1508 14.1775 11.7992 13.8258C11.4475 13.4742 11.25 12.9973 11.25 12.5ZM2.5 7.8125C2.5 7.06658 2.79632 6.35121 3.32376 5.82376C3.85121 5.29632 4.56658 5 5.3125 5H20.9375C21.3068 5 21.6726 5.07275 22.0138 5.21409C22.355 5.35543 22.6651 5.5626 22.9262 5.82376C23.1874 6.08493 23.3946 6.39497 23.5359 6.7362C23.6773 7.07743 23.75 7.44316 23.75 7.8125V13.75H21.875V10.625H20.9375C20.1916 10.625 19.4762 10.3287 18.9488 9.80124C18.4213 9.27379 18.125 8.55842 18.125 7.8125V6.875H8.125V7.8125C8.125 8.55842 7.82868 9.27379 7.30124 9.80124C6.77379 10.3287 6.05842 10.625 5.3125 10.625H4.375V14.375H5.3125C6.05842 14.375 6.77379 14.6713 7.30124 15.1988C7.82868 15.7262 8.125 16.4416 8.125 17.1875V18.125H17.5V20H5.3125C4.56658 20 3.85121 19.7037 3.32376 19.1762C2.79632 18.6488 2.5 17.9334 2.5 17.1875V7.8125ZM5.3125 6.875C5.06386 6.875 4.8254 6.97377 4.64959 7.14959C4.47377 7.3254 4.375 7.56386 4.375 7.8125V8.75H5.3125C5.56114 8.75 5.7996 8.65123 5.97541 8.47541C6.15123 8.2996 6.25 8.06114 6.25 7.8125V6.875H5.3125ZM21.875 8.75V7.8125C21.875 7.56386 21.7762 7.3254 21.6004 7.14959C21.4246 6.97377 21.1861 6.875 20.9375 6.875H20V7.8125C20 8.33 20.42 8.75 20.9375 8.75H21.875ZM4.375 17.1875C4.375 17.705 4.795 18.125 5.3125 18.125H6.25V17.1875C6.25 16.9389 6.15123 16.7004 5.97541 16.5246C5.7996 16.3488 5.56114 16.25 5.3125 16.25H4.375V17.1875ZM5.50125 21.875H17.5V23.75H8.75C8.09154 23.7502 7.44464 23.577 6.87435 23.2479C6.30405 22.9187 5.83048 22.4452 5.50125 21.875ZM27.5 13.75V11.25C27.5002 10.5915 27.327 9.94464 26.9979 9.37435C26.6687 8.80405 26.1952 8.33048 25.625 8.00125V13.75H27.5ZM20.625 15C20.1277 15 19.6508 15.1975 19.2992 15.5492C18.9475 15.9008 18.75 16.3777 18.75 16.875V26.875C18.75 27.3723 18.9475 27.8492 19.2992 28.2008C19.6508 28.5525 20.1277 28.75 20.625 28.75H26.875C27.3723 28.75 27.8492 28.5525 28.2008 28.2008C28.5525 27.8492 28.75 27.3723 28.75 26.875V16.875C28.75 16.3777 28.5525 15.9008 28.2008 15.5492C27.8492 15.1975 27.3723 15 26.875 15H20.625ZM21.25 20.625H22.5C22.6658 20.625 22.8247 20.6908 22.9419 20.8081C23.0592 20.9253 23.125 21.0842 23.125 21.25C23.125 21.4158 23.0592 21.5747 22.9419 21.6919C22.8247 21.8092 22.6658 21.875 22.5 21.875H21.25C21.0842 21.875 20.9253 21.8092 20.8081 21.6919C20.6908 21.5747 20.625 21.4158 20.625 21.25C20.625 21.0842 20.6908 20.9253 20.8081 20.8081C20.9253 20.6908 21.0842 20.625 21.25 20.625ZM25 20.625H26.25C26.4158 20.625 26.5747 20.6908 26.6919 20.8081C26.8092 20.9253 26.875 21.0842 26.875 21.25C26.875 21.4158 26.8092 21.5747 26.6919 21.6919C26.5747 21.8092 26.4158 21.875 26.25 21.875H25C24.8342 21.875 24.6753 21.8092 24.5581 21.6919C24.4408 21.5747 24.375 21.4158 24.375 21.25C24.375 21.0842 24.4408 20.9253 24.5581 20.8081C24.6753 20.6908 24.8342 20.625 25 20.625ZM21.25 23.125H22.5C22.6658 23.125 22.8247 23.1908 22.9419 23.3081C23.0592 23.4253 23.125 23.5842 23.125 23.75C23.125 23.9158 23.0592 24.0747 22.9419 24.1919C22.8247 24.3092 22.6658 24.375 22.5 24.375H21.25C21.0842 24.375 20.9253 24.3092 20.8081 24.1919C20.6908 24.0747 20.625 23.9158 20.625 23.75C20.625 23.5842 20.6908 23.4253 20.8081 23.3081C20.9253 23.1908 21.0842 23.125 21.25 23.125ZM25 23.125H26.25C26.4158 23.125 26.5747 23.1908 26.6919 23.3081C26.8092 23.4253 26.875 23.5842 26.875 23.75C26.875 23.9158 26.8092 24.0747 26.6919 24.1919C26.5747 24.3092 26.4158 24.375 26.25 24.375H25C24.8342 24.375 24.6753 24.3092 24.5581 24.1919C24.4408 24.0747 24.375 23.9158 24.375 23.75C24.375 23.5842 24.4408 23.4253 24.5581 23.3081C24.6753 23.1908 24.8342 23.125 25 23.125ZM21.25 25.625H22.5C22.6658 25.625 22.8247 25.6908 22.9419 25.8081C23.0592 25.9253 23.125 26.0842 23.125 26.25C23.125 26.4158 23.0592 26.5747 22.9419 26.6919C22.8247 26.8092 22.6658 26.875 22.5 26.875H21.25C21.0842 26.875 20.9253 26.8092 20.8081 26.6919C20.6908 26.5747 20.625 26.4158 20.625 26.25C20.625 26.0842 20.6908 25.9253 20.8081 25.8081C20.9253 25.6908 21.0842 25.625 21.25 25.625ZM25 25.625H26.25C26.4158 25.625 26.5747 25.6908 26.6919 25.8081C26.8092 25.9253 26.875 26.0842 26.875 26.25C26.875 26.4158 26.8092 26.5747 26.6919 26.6919C26.5747 26.8092 26.4158 26.875 26.25 26.875H25C24.8342 26.875 24.6753 26.8092 24.5581 26.6919C24.4408 26.5747 24.375 26.4158 24.375 26.25C24.375 26.0842 24.4408 25.9253 24.5581 25.8081C24.6753 25.6908 24.8342 25.625 25 25.625ZM20.625 17.5C20.625 17.3342 20.6908 17.1753 20.8081 17.0581C20.9253 16.9408 21.0842 16.875 21.25 16.875H26.25C26.4158 16.875 26.5747 16.9408 26.6919 17.0581C26.8092 17.1753 26.875 17.3342 26.875 17.5V18.75C26.875 18.9158 26.8092 19.0747 26.6919 19.1919C26.5747 19.3092 26.4158 19.375 26.25 19.375H21.25C21.0842 19.375 20.9253 19.3092 20.8081 19.1919C20.6908 19.0747 20.625 18.9158 20.625 18.75V17.5Z" fill="#1329A9"/>
</svg>
