<svg width="30" height="30" viewBox="0 0 30 30" fill="none" xmlns="http://www.w3.org/2000/svg">
<path d="M6.5625 9.375C6.31386 9.375 6.0754 9.47377 5.89959 9.64959C5.72377 9.8254 5.625 10.0639 5.625 10.3125C5.625 10.5611 5.72377 10.7996 5.89959 10.9754C6.0754 11.1512 6.31386 11.25 6.5625 11.25H19.6875C19.9361 11.25 20.1746 11.1512 20.3504 10.9754C20.5262 10.7996 20.625 10.5611 20.625 10.3125C20.625 10.0639 20.5262 9.8254 20.3504 9.64959C20.1746 9.47377 19.9361 9.375 19.6875 9.375H6.5625ZM6.5625 13.125C6.31386 13.125 6.0754 13.2238 5.89959 13.3996C5.72377 13.5754 5.625 13.8139 5.625 14.0625V17.8125C5.625 18.0611 5.72377 18.2996 5.89959 18.4754C6.0754 18.6512 6.31386 18.75 6.5625 18.75H10.3125C10.5611 18.75 10.7996 18.6512 10.9754 18.4754C11.1512 18.2996 11.25 18.0611 11.25 17.8125V14.0625C11.25 13.8139 11.1512 13.5754 10.9754 13.3996C10.7996 13.2238 10.5611 13.125 10.3125 13.125H6.5625ZM7.5 16.875V15H9.375V16.875H7.5ZM14.0625 13.125C13.8139 13.125 13.5754 13.2238 13.3996 13.3996C13.2238 13.5754 13.125 13.8139 13.125 14.0625C13.125 14.3111 13.2238 14.5496 13.3996 14.7254C13.5754 14.9012 13.8139 15 14.0625 15H19.6875C19.9361 15 20.1746 14.9012 20.3504 14.7254C20.5262 14.5496 20.625 14.3111 20.625 14.0625C20.625 13.8139 20.5262 13.5754 20.3504 13.3996C20.1746 13.2238 19.9361 13.125 19.6875 13.125H14.0625ZM14.0625 16.875C13.8139 16.875 13.5754 16.9738 13.3996 17.1496C13.2238 17.3254 13.125 17.5639 13.125 17.8125C13.125 18.0611 13.2238 18.2996 13.3996 18.4754C13.5754 18.6512 13.8139 18.75 14.0625 18.75H19.6875C19.9361 18.75 20.1746 18.6512 20.3504 18.4754C20.5262 18.2996 20.625 18.0611 20.625 17.8125C20.625 17.5639 20.5262 17.3254 20.3504 17.1496C20.1746 16.9738 19.9361 16.875 19.6875 16.875H14.0625ZM1.875 7.5C1.875 6.50544 2.27009 5.55161 2.97335 4.84835C3.67661 4.14509 4.63044 3.75 5.625 3.75H20.625C21.6196 3.75 22.5734 4.14509 23.2766 4.84835C23.9799 5.55161 24.375 6.50544 24.375 7.5C25.3696 7.5 26.3234 7.89509 27.0266 8.59835C27.7299 9.30161 28.125 10.2554 28.125 11.25V19.6875C28.125 20.9307 27.6311 22.123 26.7521 23.0021C25.873 23.8811 24.6807 24.375 23.4375 24.375H6.5625C5.3193 24.375 4.12701 23.8811 3.24794 23.0021C2.36886 22.123 1.875 20.9307 1.875 19.6875V7.5ZM23.4375 19.6875C23.1889 19.6875 22.9504 19.5887 22.7746 19.4129C22.5988 19.2371 22.5 18.9986 22.5 18.75V7.5C22.5 7.00272 22.3025 6.52581 21.9508 6.17417C21.5992 5.82254 21.1223 5.625 20.625 5.625H5.625C5.12772 5.625 4.65081 5.82254 4.29917 6.17417C3.94754 6.52581 3.75 7.00272 3.75 7.5V19.6875C3.75 20.4334 4.04632 21.1488 4.57376 21.6762C5.10121 22.2037 5.81658 22.5 6.5625 22.5H23.4375C24.1834 22.5 24.8988 22.2037 25.4262 21.6762C25.9537 21.1488 26.25 20.4334 26.25 19.6875V11.25C26.25 10.7527 26.0525 10.2758 25.7008 9.92418C25.3492 9.57254 24.8723 9.375 24.375 9.375V18.75C24.375 18.9986 24.2762 19.2371 24.1004 19.4129C23.9246 19.5887 23.6861 19.6875 23.4375 19.6875Z" fill="#1329A9"/>
</svg>
