<svg width="25" height="25" viewBox="0 0 25 25" fill="none" xmlns="http://www.w3.org/2000/svg">
<path d="M12.5 5.729C13.4669 5.729 14.3943 6.11312 15.078 6.79684C15.7617 7.48057 16.1458 8.4079 16.1458 9.37484C16.1458 10.3418 15.7617 11.2691 15.078 11.9528C14.3943 12.6366 13.4669 13.0207 12.5 13.0207C11.5331 13.0207 10.6057 12.6366 9.92201 11.9528C9.23828 11.2691 8.85417 10.3418 8.85417 9.37484C8.85417 8.4079 9.23828 7.48057 9.92201 6.79684C10.6057 6.11312 11.5331 5.729 12.5 5.729ZM5.20833 8.33317C5.79167 8.33317 6.33333 8.48942 6.80208 8.77067C6.64583 10.2603 7.08333 11.7394 7.97917 12.8957C7.45833 13.8957 6.41667 14.5832 5.20833 14.5832C4.37953 14.5832 3.58468 14.2539 2.99862 13.6679C2.41257 13.0818 2.08333 12.287 2.08333 11.4582C2.08333 10.6294 2.41257 9.83451 2.99862 9.24846C3.58468 8.66241 4.37953 8.33317 5.20833 8.33317ZM19.7917 8.33317C20.6205 8.33317 21.4153 8.66241 22.0014 9.24846C22.5874 9.83451 22.9167 10.6294 22.9167 11.4582C22.9167 12.287 22.5874 13.0818 22.0014 13.6679C21.4153 14.2539 20.6205 14.5832 19.7917 14.5832C18.5833 14.5832 17.5417 13.8957 17.0208 12.8957C17.9286 11.723 18.3502 10.2458 18.1979 8.77067C18.6667 8.48942 19.2083 8.33317 19.7917 8.33317ZM5.72917 19.0103C5.72917 16.854 8.76042 15.104 12.5 15.104C16.2396 15.104 19.2708 16.854 19.2708 19.0103V20.8332H5.72917V19.0103ZM0 20.8332V19.2707C0 17.8228 1.96875 16.604 4.63542 16.2498C4.02083 16.9582 3.64583 17.9373 3.64583 19.0103V20.8332H0ZM25 20.8332H21.3542V19.0103C21.3542 17.9373 20.9792 16.9582 20.3646 16.2498C23.0312 16.604 25 17.8228 25 19.2707V20.8332Z" fill="white"/>
</svg>
