<svg width="30" height="30" viewBox="0 0 30 30" fill="none" xmlns="http://www.w3.org/2000/svg">
<g clip-path="url(#clip0_588_3371)">
<path d="M21.4313 17.1379V12.8535H8.56875V17.1379H0V30.0004H30V17.1379H21.4313ZM8.56875 28.566H1.43437V18.5723H8.56875V28.566ZM19.9969 28.566H10.0031V14.2879H19.9969V28.566ZM28.575 28.566H21.4313V18.5723H28.575V28.566Z" fill="white"/>
<path d="M27.1406 19.9969H22.8563V21.4313H25.7156V22.8562H22.8563V24.2812H25.7156V25.7156H22.8563V27.1406H27.1406V19.9969ZM24.2906 5.70938H27.1406V7.14375H24.2906V5.70938ZM22.8563 0H24.2906V1.425H22.8563V0ZM21.4313 1.425H22.8563V2.85938H21.4313V1.425ZM17.1469 21.4313H15.7125V15.7125H12.8625V17.1375H14.2875V21.4313H12.8625V22.8562H17.1469V21.4313ZM14.2875 0H15.7125V2.85938H14.2875V0ZM8.56875 4.28438V9.99375H10.0031V11.4281H19.9969V9.99375H21.4313V4.28438H19.9969V5.70938H18.5719V7.14375H17.1469V5.70938H15.7125V4.28438H14.2875V5.70938H12.8625V7.14375H11.4281V5.70938H10.0031V4.28438H8.56875ZM17.1469 8.56875H18.5719V9.99375H17.1469V8.56875ZM14.2875 8.56875H15.7125V9.99375H14.2875V8.56875ZM11.4281 8.56875H12.8625V9.99375H11.4281V8.56875ZM7.14375 1.425H8.56875V2.85938H7.14375V1.425ZM5.71875 0H7.14375V1.425H5.71875V0ZM7.14375 25.7156H4.28438V24.2812H7.14375V19.9969H2.85938V21.4313H5.71875V22.8562H2.85938V27.1406H7.14375V25.7156ZM2.85938 5.70938H5.71875V7.14375H2.85938V5.70938Z" fill="white"/>
</g>
<defs>
<clipPath id="clip0_588_3371">
<rect width="30" height="30" fill="white"/>
</clipPath>
</defs>
</svg>
