<svg width="30" height="30" viewBox="0 0 30 30" fill="none" xmlns="http://www.w3.org/2000/svg">
<path d="M3.75 15C9.375 15 15 9.375 15 3.75C15 9.375 20.625 15 26.25 15C20.625 15 15 20.625 15 26.25C15 20.625 9.375 15 3.75 15ZM2.5 24.375C3.54125 24.375 5.625 22.2913 5.625 21.25C5.625 22.2913 7.70875 24.375 8.75 24.375C7.70875 24.375 5.625 26.4587 5.625 27.5C5.625 26.4587 3.54125 24.375 2.5 24.375ZM20 6.25C21.25 6.25 23.75 3.75 23.75 2.5C23.75 3.75 26.25 6.25 27.5 6.25C26.25 6.25 23.75 8.75 23.75 10C23.75 8.75 21.25 6.25 20 6.25Z" stroke="white" stroke-width="1.875" stroke-linejoin="round"/>
</svg>
