<svg width="32" height="32" viewBox="0 0 32 32" fill="none" xmlns="http://www.w3.org/2000/svg">
<path d="M13.2491 20.6666C13.1301 20.2052 12.8895 19.7841 12.5526 19.4471C12.2156 19.1101 11.7945 18.8696 11.3331 18.7506L3.15309 16.6413C3.01353 16.6016 2.8907 16.5176 2.80324 16.4019C2.71578 16.2861 2.66846 16.145 2.66846 15.9999C2.66846 15.8549 2.71578 15.7137 2.80324 15.598C2.8907 15.4823 3.01353 15.3982 3.15309 15.3586L11.3331 13.2479C11.7944 13.129 12.2153 12.8887 12.5523 12.552C12.8892 12.2153 13.1298 11.7944 13.2491 11.3333L15.3584 3.15326C15.3976 3.01315 15.4816 2.88971 15.5975 2.80178C15.7134 2.71386 15.8549 2.66626 16.0004 2.66626C16.1459 2.66626 16.2874 2.71386 16.4033 2.80178C16.5192 2.88971 16.6032 3.01315 16.6424 3.15326L18.7504 11.3333C18.8695 11.7947 19.11 12.2158 19.4469 12.5527C19.7839 12.8897 20.205 13.1302 20.6664 13.2493L28.8464 15.3573C28.9871 15.3961 29.1111 15.4799 29.1995 15.596C29.2879 15.7121 29.3358 15.854 29.3358 15.9999C29.3358 16.1458 29.2879 16.2877 29.1995 16.4038C29.1111 16.5199 28.9871 16.6038 28.8464 16.6426L20.6664 18.7506C20.205 18.8696 19.7839 19.1101 19.4469 19.4471C19.11 19.7841 18.8695 20.2052 18.7504 20.6666L16.6411 28.8466C16.6019 28.9867 16.5179 29.1101 16.402 29.1981C16.2861 29.286 16.1446 29.3336 15.9991 29.3336C15.8536 29.3336 15.7121 29.286 15.5962 29.1981C15.4803 29.1101 15.3963 28.9867 15.3571 28.8466L13.2491 20.6666Z" stroke="#49D0F4" stroke-width="2" stroke-linecap="round" stroke-linejoin="round"/>
<path d="M26.6665 4V9.33333" stroke="#49D0F4" stroke-width="2" stroke-linecap="round" stroke-linejoin="round"/>
<path d="M29.3333 6.66675H24" stroke="#49D0F4" stroke-width="2" stroke-linecap="round" stroke-linejoin="round"/>
<path d="M5.3335 22.6667V25.3334" stroke="#49D0F4" stroke-width="2" stroke-linecap="round" stroke-linejoin="round"/>
<path d="M6.66667 24H4" stroke="#49D0F4" stroke-width="2" stroke-linecap="round" stroke-linejoin="round"/>
</svg>
