<svg width="30" height="30" viewBox="0 0 30 30" fill="none" xmlns="http://www.w3.org/2000/svg">
<path d="M17.6944 3.64122C17.4807 3.44515 17.1995 3.3392 16.9095 3.34549C16.6195 3.35178 16.3432 3.46982 16.1382 3.67497L3.73318 16.08C3.62858 16.1845 3.5456 16.3085 3.48899 16.4451C3.43237 16.5817 3.40323 16.7281 3.40323 16.8759C3.40323 17.0238 3.43237 17.1701 3.48899 17.3067C3.5456 17.4433 3.62858 17.5674 3.73318 17.6718L5.46943 19.4081L5.51443 19.4137C5.57068 19.4137 5.64568 19.3931 5.71693 19.3462C6.40219 18.8891 7.22471 18.6835 8.04448 18.7645C8.86425 18.8456 9.6306 19.2082 10.2131 19.7907C10.7956 20.3732 11.1582 21.1395 11.2392 21.9593C11.3203 22.7791 11.1147 23.6016 10.6576 24.2868C10.6159 24.3464 10.5925 24.4167 10.5901 24.4893C10.5901 24.5131 10.5919 24.5275 10.5957 24.5325L12.2907 26.2293C12.3972 26.3361 12.5241 26.4203 12.6638 26.477C12.8035 26.5338 12.9532 26.5618 13.104 26.5596C13.2547 26.5573 13.4035 26.5247 13.5415 26.4638C13.6794 26.4029 13.8037 26.3149 13.9069 26.205L26.2801 13.0575C26.382 12.9489 26.4613 12.8213 26.5135 12.6818C26.5657 12.5424 26.5897 12.394 26.5841 12.2453C26.5785 12.0965 26.5435 11.9503 26.481 11.8152C26.4185 11.6801 26.3298 11.5587 26.2201 11.4581L24.5588 9.93372H24.5532C24.5266 9.92788 24.4991 9.92788 24.4726 9.93372C24.3677 9.95815 24.272 10.0122 24.1969 10.0893C23.8836 10.4445 23.5026 10.7336 23.0762 10.9398C22.6498 11.1459 22.1866 11.265 21.7136 11.29C21.2407 11.315 20.7675 11.2455 20.3217 11.0855C19.8759 10.9254 19.4666 10.6781 19.1175 10.358C18.7685 10.0379 18.4868 9.65136 18.2889 9.22106C18.091 8.79077 17.9809 8.32534 17.965 7.85198C17.9491 7.37863 18.0277 6.90686 18.1964 6.46427C18.365 6.02168 18.6201 5.61715 18.9469 5.27435C19.0168 5.19246 19.0617 5.09224 19.0763 4.9856C19.0803 4.95727 19.0777 4.92841 19.0688 4.90122L17.6944 3.64122ZM15.0788 2.61372C15.5571 2.1354 16.2017 1.8602 16.878 1.84553C17.5543 1.83086 18.2102 2.07784 18.7088 2.53497L20.0832 3.79685C20.4938 4.17185 20.6082 4.68372 20.5707 5.1206C20.5313 5.55185 20.3419 5.97372 20.0494 6.2906C19.8664 6.49029 19.7244 6.72408 19.6317 6.97863C19.539 7.23318 19.4973 7.5035 19.5091 7.77415C19.5208 8.04481 19.5858 8.3105 19.7002 8.55605C19.8146 8.8016 19.9763 9.02221 20.176 9.20529C20.3757 9.38836 20.6095 9.5303 20.864 9.62302C21.1186 9.71574 21.3889 9.75741 21.6595 9.74566C21.9302 9.7339 22.1959 9.66896 22.4414 9.55452C22.687 9.44009 22.9076 9.27841 23.0907 9.07872C23.3813 8.75997 23.7844 8.53497 24.2101 8.4581C24.45 8.40962 24.698 8.41777 24.9343 8.48189C25.1706 8.54601 25.3887 8.66433 25.5713 8.82747L27.2344 10.3518C27.4905 10.5868 27.6973 10.8702 27.843 11.1857C27.9886 11.5013 28.0702 11.8425 28.0829 12.1898C28.0957 12.5371 28.0393 12.8834 27.9172 13.2087C27.795 13.5341 27.6095 13.8319 27.3713 14.085L15.0001 27.2325C14.7591 27.4885 14.4693 27.6935 14.1476 27.8353C13.8259 27.9772 13.4791 28.053 13.1276 28.0582C12.7761 28.0635 12.4271 27.9981 12.1014 27.8659C11.7756 27.7337 11.4798 27.5374 11.2313 27.2887L9.5363 25.5937C8.88568 24.9431 9.04318 24.0056 9.41068 23.4562C9.67434 23.0595 9.79257 22.5838 9.74531 22.1099C9.69804 21.6359 9.48819 21.1929 9.15139 20.8561C8.81459 20.5193 8.3716 20.3095 7.89765 20.2622C7.42369 20.215 6.94798 20.3332 6.5513 20.5968C5.99818 20.9625 5.06255 21.12 4.41193 20.4675L2.67568 18.7312C2.4319 18.4875 2.23852 18.1981 2.10658 17.8796C1.97464 17.5611 1.90674 17.2197 1.90674 16.875C1.90674 16.5302 1.97464 16.1889 2.10658 15.8704C2.23852 15.5519 2.4319 15.2625 2.67568 15.0187L15.0788 2.61372Z" fill="#1329A9"/>
</svg>
