<svg width="30" height="30" viewBox="0 0 30 30" fill="none" xmlns="http://www.w3.org/2000/svg">
<path d="M7.36007 17.3111L12.6866 22.6406L22.4636 12.8636L17.1341 7.53708L7.36007 17.3111ZM28.6571 9.99557L26.3906 7.72757C25.8149 8.04213 25.1528 8.16176 24.5035 8.06854C23.8541 7.97533 23.2524 7.6743 22.7884 7.21051C22.3245 6.74673 22.0232 6.14514 21.9298 5.49582C21.8363 4.84649 21.9557 4.18437 22.2701 3.60857L20.0036 1.34057C19.7179 1.05735 19.3319 0.898437 18.9296 0.898438C18.5273 0.898438 18.1413 1.05735 17.8556 1.34057L1.34058 17.8556C1.05735 18.1413 0.898438 18.5273 0.898438 18.9296C0.898437 19.3319 1.05735 19.7179 1.34058 20.0036L3.60858 22.2686C4.18455 21.9532 4.84724 21.8331 5.49726 21.9262C6.14728 22.0194 6.74958 22.3207 7.21383 22.7851C7.67807 23.2495 7.97923 23.852 8.07212 24.502C8.16502 25.1521 8.04465 25.8147 7.72907 26.3906L9.99708 28.6556C10.2824 28.9395 10.6685 29.0989 11.0711 29.0989C11.4736 29.0989 11.8598 28.9395 12.1451 28.6556L28.6571 12.1436C28.941 11.8583 29.1004 11.4721 29.1004 11.0696C29.1004 10.667 28.941 10.2809 28.6571 9.99557ZM12.6866 25.0781L4.92257 17.3111L17.1356 5.09958L24.8996 12.8636L12.6866 25.0781Z" fill="white"/>
</svg>
