<svg width="34" height="30" viewBox="0 0 34 30" fill="none" xmlns="http://www.w3.org/2000/svg">
<path d="M0.347733 29.9812C0.467796 30.0125 0.595352 29.9952 0.702751 29.9331C0.810151 29.871 0.888739 29.769 0.921483 29.6494C1.88711 26.0466 5.81148 25.1128 8.15711 24.5541C8.74492 24.4144 9.20898 24.3037 9.51086 24.1734C12.1827 23.0138 13.0537 21.1481 13.3143 19.7869C13.3298 19.7059 13.3237 19.6222 13.2965 19.5444C13.2693 19.4665 13.2221 19.3972 13.1596 19.3434C11.7684 18.1425 10.5946 16.3397 9.85398 14.2659C9.8329 14.2066 9.80006 14.152 9.75742 14.1056C8.77773 13.0406 8.21523 11.9147 8.21523 11.0175C8.21523 10.4934 8.41304 10.1419 8.85836 9.87656C8.92506 9.83669 8.9808 9.78085 9.02057 9.71408C9.06034 9.64732 9.08288 9.57171 9.08617 9.49406C9.29336 4.71844 12.6946 0.959062 16.8665 0.934687L16.9668 0.94125C21.1593 0.999375 24.539 4.83938 24.6599 9.6825C24.6617 9.74868 24.6775 9.81372 24.7063 9.87334C24.7351 9.93297 24.7761 9.98583 24.8268 10.0284C25.1202 10.2769 25.2571 10.5919 25.2571 11.0194C25.2571 11.7703 24.8568 12.6938 24.1312 13.6181C24.0962 13.6624 24.0695 13.7125 24.0524 13.7662C23.3024 16.1437 21.9562 18.2428 20.3605 19.5272C20.2943 19.5804 20.2438 19.6507 20.2144 19.7305C20.185 19.8102 20.1778 19.8965 20.1937 19.98C20.4543 21.3403 21.3252 23.205 23.9971 24.3666C24.313 24.5034 24.8034 24.6103 25.4249 24.7444C27.7471 25.2469 31.633 26.0897 32.5865 29.6494C32.6025 29.7088 32.63 29.7646 32.6676 29.8134C32.7051 29.8622 32.7519 29.9031 32.8053 29.9339C32.8587 29.9646 32.9175 29.9845 32.9786 29.9925C33.0397 30.0005 33.1017 29.9963 33.1612 29.9803C33.2206 29.9643 33.2764 29.9367 33.3252 29.8992C33.374 29.8617 33.4149 29.8149 33.4457 29.7615C33.4764 29.7081 33.4963 29.6492 33.5043 29.5882C33.5122 29.5271 33.5081 29.4651 33.4921 29.4056C32.3905 25.2928 27.988 24.3394 25.6237 23.8275C25.0752 23.7084 24.6018 23.6063 24.3712 23.505C22.6274 22.7475 21.553 21.5934 21.1734 20.0691C22.7924 18.6787 24.1471 16.5338 24.9215 14.1281C25.7437 13.0594 26.1955 11.9587 26.1955 11.0184C26.1955 10.3912 25.993 9.86812 25.5918 9.45938C25.3687 4.20563 21.6196 0.0684375 16.9668 0.001875L16.8271 0C12.2587 0.024375 8.49367 4.05281 8.16461 9.21562C7.57773 9.64688 7.27961 10.2516 7.27961 11.0194C7.27961 12.1284 7.9068 13.455 9.00461 14.6719C9.76305 16.7559 10.9387 18.5869 12.3384 19.8684C11.9605 21.3984 10.8852 22.5562 9.13773 23.3147C8.9118 23.4131 8.46179 23.5209 7.94055 23.6447C5.55836 24.2109 1.12586 25.2656 0.0158584 29.4075C-0.0161981 29.5276 0.000755908 29.6555 0.0629919 29.7631C0.125228 29.8707 0.22765 29.9492 0.347733 29.9812Z" fill="#0D99FF"/>
</svg>
