<svg width="30" height="30" viewBox="0 0 30 30" fill="none" xmlns="http://www.w3.org/2000/svg">
<path d="M14.9137 2.57248C15.0685 2.37878 15.2602 2.21771 15.4777 2.09859C15.6952 1.97946 15.9341 1.90466 16.1807 1.8785C16.4272 1.85235 16.6766 1.87536 16.9142 1.9462C17.1518 2.01704 17.373 2.13432 17.565 2.29123L23.6812 7.28623C24.0176 7.56086 24.2482 7.94373 24.3337 8.36946C24.4192 8.7952 24.3543 9.23741 24.15 9.6206C23.6153 9.45717 23.0592 9.37439 22.5 9.37498H21.9375L22.4963 8.73748L19.275 6.10685L16.6181 9.37685H14.2013L17.8219 4.92185L16.3781 3.74248L11.8819 9.37498H9.48188L14.9137 2.57248ZM19.6875 18.75C19.4389 18.75 19.2004 18.8487 19.0246 19.0246C18.8488 19.2004 18.75 19.4388 18.75 19.6875C18.75 19.9361 18.8488 20.1746 19.0246 20.3504C19.2004 20.5262 19.4389 20.625 19.6875 20.625H21.5625C21.8111 20.625 22.0496 20.5262 22.2254 20.3504C22.4012 20.1746 22.5 19.9361 22.5 19.6875C22.5 19.4388 22.4012 19.2004 22.2254 19.0246C22.0496 18.8487 21.8111 18.75 21.5625 18.75H19.6875ZM5.625 10.3125C5.625 10.0638 5.72377 9.82538 5.89959 9.64956C6.0754 9.47375 6.31386 9.37498 6.5625 9.37498H7.60875L9.09938 7.49998H6.5625C5.81658 7.49998 5.10121 7.79629 4.57376 8.32374C4.04632 8.85118 3.75 9.56656 3.75 10.3125V21.5625C3.75 22.8057 4.24386 23.998 5.12294 24.877C6.00201 25.7561 7.1943 26.25 8.4375 26.25H22.5C23.4946 26.25 24.4484 25.8549 25.1516 25.1516C25.8549 24.4484 26.25 23.4945 26.25 22.5V15C26.25 14.0054 25.8549 13.0516 25.1516 12.3483C24.4484 11.6451 23.4946 11.25 22.5 11.25H6.5625C6.31386 11.25 6.0754 11.1512 5.89959 10.9754C5.72377 10.7996 5.625 10.5611 5.625 10.3125ZM5.625 21.5625V12.9656C5.92 13.0706 6.2325 13.1237 6.5625 13.125H22.5C22.9973 13.125 23.4742 13.3225 23.8258 13.6742C24.1775 14.0258 24.375 14.5027 24.375 15V22.5C24.375 22.9973 24.1775 23.4742 23.8258 23.8258C23.4742 24.1774 22.9973 24.375 22.5 24.375H8.4375C7.69158 24.375 6.97621 24.0787 6.44876 23.5512C5.92132 23.0238 5.625 22.3084 5.625 21.5625Z" fill="#1329A9"/>
</svg>
