<svg width="30" height="30" viewBox="0 0 30 30" fill="none" xmlns="http://www.w3.org/2000/svg">
<path d="M13.75 11.25C13.75 10.9185 13.8817 10.6005 14.1161 10.3661C14.3505 10.1317 14.6684 10 15 10C15.3315 10 15.6494 10.1317 15.8839 10.3661C16.1183 10.6005 16.25 10.9185 16.25 11.25V13.75C16.25 14.0815 16.1183 14.3995 15.8839 14.6339C15.6494 14.8683 15.3315 15 15 15C14.6684 15 14.3505 14.8683 14.1161 14.6339C13.8817 14.3995 13.75 14.0815 13.75 13.75V11.25ZM15 16.875C14.5027 16.875 14.0258 17.0725 13.6741 17.4242C13.3225 17.7758 13.125 18.2527 13.125 18.75C13.125 19.2473 13.3225 19.7242 13.6741 20.0758C14.0258 20.4275 14.5027 20.625 15 20.625C15.4973 20.625 15.9742 20.4275 16.3258 20.0758C16.6774 19.7242 16.875 19.2473 16.875 18.75C16.875 18.2527 16.6774 17.7758 16.3258 17.4242C15.9742 17.0725 15.4973 16.875 15 16.875ZM13.035 3.6475C13.2317 3.29961 13.5173 3.01019 13.8625 2.80882C14.2078 2.60745 14.6003 2.50134 15 2.50134C15.3996 2.50134 15.7922 2.60745 16.1374 2.80882C16.4826 3.01019 16.7682 3.29961 16.965 3.6475L27.195 21.57C28.065 23.095 26.9725 25 25.2275 25H4.77497C3.02997 25 1.93747 23.095 2.80747 21.57L13.035 3.6475ZM15 5.2975L5.20747 22.4575H24.7925L15 5.2975Z" fill="#1329A9"/>
</svg>
